<?xml version="1.0" encoding="iso-8859-1"?>
<svg version="1.1" id="Capa_1" xmlns="http://www.w3.org/2000/svg" xmlns:xlink="http://www.w3.org/1999/xlink" x="0px" y="0px" viewBox="0 0 512.043 512.043" style="enable-background:new 0 0 512.043 512.043;" xml:space="preserve">
	<path d="M394.667,343.465c-29.397,0-53.333,23.915-53.333,53.333c0,29.419,23.936,53.333,53.333,53.333S448,426.217,448,396.798
				S424.064,343.465,394.667,343.465z M394.667,428.798c-17.643,0-32-14.357-32-32c0-17.643,14.357-32,32-32
				c17.643,0,32,14.357,32,32C426.667,414.441,412.309,428.798,394.667,428.798z" />
	<path d="M282.069,485.417c-22.315,3.499-45.44,5.269-68.736,5.269c-113.152,0-192-39.36-192-74.667v-64.384
				c34.197,32.043,106.347,53.717,192,53.717c11.264,0,22.229-0.469,33.024-1.216c5.867-0.384,10.325-5.461,9.92-11.349
				c-0.405-5.888-5.099-10.347-11.371-9.941c-10.304,0.704-20.8,1.173-31.573,1.173c-113.152,0-192-39.36-192-74.667v-64.384
				c34.197,32.043,106.347,53.717,192,53.717c32.341,0,63.552-3.115,92.779-9.301c5.76-1.237,9.451-6.869,8.235-12.651
				c-1.216-5.781-6.805-9.344-12.651-8.235c-27.776,5.867-57.515,8.853-88.363,8.853c-113.152,0-192-39.36-192-74.667v-64.384
				c34.197,32.043,106.347,53.717,192,53.717s157.803-21.675,192-53.717v64.384c0,13.781-11.371,25.344-20.885,32.64
				c-4.672,3.584-5.568,10.261-2.005,14.955c2.112,2.752,5.269,4.181,8.491,4.181c2.24,0,4.523-0.704,6.464-2.197
				c3.008-2.283,5.376-4.757,7.936-7.168v3.712c0,5.888,4.779,10.667,10.667,10.667s10.667-4.779,10.667-10.667V96.019
				c0-53.824-93.717-96-213.333-96S0,42.195,0,96.019v320c0,53.824,93.717,96,213.333,96c24.405,0,48.64-1.856,72.021-5.525
				c5.824-0.917,9.792-6.379,8.896-12.181C293.355,488.51,287.915,484.627,282.069,485.417z M213.333,21.353
				c113.152,0,192,39.36,192,74.667s-78.848,74.667-192,74.667s-192-39.36-192-74.667S100.181,21.353,213.333,21.353z" />
	<path d="M505.408,359.337c-0.96-2.816-3.029-5.099-5.739-6.315c-2.709-1.216-5.803-1.259-8.533-0.085
				c-5.12,2.091-10.688,0.427-13.312-4.139c-2.624-4.565-1.323-10.283,3.093-13.611c2.389-1.792,3.904-4.48,4.203-7.445
				c0.299-2.965-0.64-5.909-2.603-8.128c-17.429-19.776-39.829-32.875-64.832-37.845c-2.944-0.64-6.016,0.107-8.427,1.877
				c-2.432,1.792-3.968,4.501-4.288,7.509c-0.555,5.504-4.992,9.643-10.283,9.643c-5.291,0-9.728-4.139-10.283-9.643
				c-0.32-3.008-1.877-5.717-4.288-7.509c-2.432-1.771-5.504-2.517-8.427-1.877c-25.003,4.971-47.424,18.048-64.832,37.845
				c-1.963,2.24-2.901,5.163-2.603,8.128c0.299,2.965,1.835,5.653,4.203,7.445c4.437,3.349,5.739,9.045,3.093,13.611
				c-2.624,4.565-8.235,6.229-13.312,4.139c-2.752-1.173-5.845-1.131-8.533,0.085c-2.709,1.216-4.779,3.499-5.739,6.315
				c-4.459,13.141-6.635,25.408-6.635,37.461s2.176,24.299,6.635,37.44c0.96,2.816,3.029,5.099,5.739,6.315
				c2.688,1.237,5.803,1.259,8.533,0.085c5.12-2.112,10.667-0.384,13.312,4.139c2.624,4.565,1.323,10.283-3.093,13.611
				c-2.389,1.792-3.904,4.48-4.203,7.445c-0.299,2.965,0.64,5.909,2.603,8.128c17.408,19.797,39.829,32.896,64.832,37.845
				c2.944,0.619,5.995-0.107,8.405-1.877c2.432-1.792,3.968-4.501,4.288-7.509c0.555-5.504,4.992-9.643,10.283-9.643
				c5.291,0,9.728,4.139,10.283,9.643c0.32,3.008,1.877,5.717,4.288,7.509c1.856,1.365,4.075,2.091,6.336,2.091
				c0.683,0,1.387-0.064,2.112-0.192c25.003-4.949,47.424-18.027,64.832-37.845c1.963-2.24,2.901-5.163,2.603-8.128
				s-1.835-5.653-4.203-7.445c-4.416-3.349-5.717-9.045-3.093-13.611c2.645-4.523,8.256-6.229,13.312-4.139
				c2.731,1.152,5.824,1.131,8.533-0.085c2.709-1.216,4.779-3.499,5.739-6.315c4.459-13.141,6.635-25.387,6.635-37.461
				S509.867,372.478,505.408,359.337z M487.829,418.494c-11.797-0.768-22.571,5.376-28.501,15.659
				c-5.931,10.283-5.355,22.741,0.661,32.469c-10.816,10.24-23.488,17.707-37.291,21.952c-5.333-10.261-15.936-17.109-28.032-17.109
				c-12.096,0-22.699,6.848-28.011,17.088c-13.824-4.245-26.475-11.712-37.291-21.952c6.016-9.728,6.592-22.187,0.64-32.469
				s-16.896-16.384-28.501-15.659c-1.899-7.552-2.837-14.677-2.837-21.675c0-6.997,0.939-14.123,2.837-21.675
				c11.627,0.789,22.571-5.355,28.501-15.659c5.952-10.283,5.376-22.741-0.64-32.469c10.816-10.24,23.467-17.685,37.269-21.952
				c5.333,10.283,15.936,17.109,28.032,17.109c12.096,0,22.699-6.848,28.032-17.109c13.803,4.267,26.453,11.712,37.269,21.952
				c-5.995,9.728-6.571,22.187-0.64,32.469c5.931,10.304,17.152,16.427,28.501,15.659c1.899,7.552,2.837,14.699,2.837,21.675
				C490.667,403.774,489.728,410.921,487.829,418.494z" />
</svg>
