<?xml version="1.0" encoding="utf-8"?>
<svg fill="#fff" version="1.1" xmlns="http://www.w3.org/2000/svg" xmlns:xlink="http://www.w3.org/1999/xlink" x="0px" y="0px" viewBox="0 0 1000 1000" enable-background="new 0 0 1000 1000" xml:space="preserve">
  <g>
    <path d="M484,377.9c-0.4-93.8-1.3-284.6-6.5-367.9c-1.6,1.8-2.9,3.4-4.7,5.4C442,39.5,283.6,172.2,270.9,441.8C260.6,655.6,399.3,795.9,457.2,845c14.3-61.7,32.6-221.2,27.7-382.2C484.2,451,484.2,420.4,484,377.9z" />
    <path d="M503.4,850.6c-2.9,13.2-6.3,25.9-9.8,34l-5.1,10.1c8.3,40.7,7.1,86.2,7.1,86.2l27.5,9.2c0,0-5.6-72.6,2.2-107.7c0.4-1.6,0.7-2.9,1.1-4.5C518.8,870.9,508.8,859.8,503.4,850.6z" />
    <path d="M721.2,371.2c-54.1-237.5-181.4-315.4-195-345.1c-0.4-0.4-0.9-1.1-1.1-1.8c3.1,61.2,4.9,169.6,5.8,353.4v0.4c0.2,40.2,0.2,72.2,0.7,83.1c3.1,106.1-3.4,200.4-9.4,260.7c0.7,59.4,21.7,111.2,34,120c4.9-4,10.7-8.9,17-14.7c0.7-0.4,1.1-0.7,1.1-0.7c0-0.2,0-0.2,0-0.4C639,766.6,763.2,616.7,721.2,371.2z" />
  </g>
</svg>