<?xml version="1.0" encoding="iso-8859-1"?>
<svg fill="#fff" version="1.1" id="Layer_1" xmlns="http://www.w3.org/2000/svg" xmlns:xlink="http://www.w3.org/1999/xlink" x="0px" y="0px" viewBox="0 0 512 512" style="enable-background:new 0 0 512 512;" xml:space="preserve">
	<g>
		<g>
			<path d="M256,0c-34.849,0-63.2,28.352-63.2,63.2c0,34.848,28.352,63.2,63.2,63.2c34.848,0,63.2-28.351,63.2-63.2S290.849,0,256,0z
			 M256,96.4c-18.307,0-33.2-14.893-33.2-33.2S237.693,30,256,30s33.2,14.894,33.2,33.2C289.2,81.506,274.307,96.4,256,96.4z" />
		</g>
	</g>
	<g>
		<g>
			<path d="M256,192.8c-34.849,0-63.2,28.352-63.2,63.2c0,34.848,28.352,63.2,63.2,63.2c34.848,0,63.2-28.352,63.2-63.2
			S290.849,192.8,256,192.8z M256,289.2c-18.307,0-33.2-14.894-33.2-33.2c0-18.306,14.894-33.2,33.2-33.2
			c18.306,0,33.2,14.894,33.2,33.2C289.2,274.306,274.307,289.2,256,289.2z" />
		</g>
	</g>
	<g>
		<g>
			<path d="M256,385.6c-34.849,0-63.2,28.351-63.2,63.2S221.151,512,256,512s63.2-28.352,63.2-63.2S290.849,385.6,256,385.6z
			 M256,482c-18.307,0-33.2-14.894-33.2-33.2c0-18.306,14.894-33.2,33.2-33.2c18.306,0,33.2,14.893,33.2,33.2S274.307,482,256,482z" />
		</g>
	</g>
	<g>
		<g>
			<path d="M63.2,0C28.352,0,0,28.352,0,63.2c0,34.848,28.352,63.2,63.2,63.2s63.2-28.351,63.2-63.2S98.049,0,63.2,0z M63.2,96.4
			C44.894,96.4,30,81.507,30,63.2S44.894,30,63.2,30c18.306,0,33.2,14.894,33.2,33.2C96.4,81.506,81.507,96.4,63.2,96.4z" />
		</g>
	</g>
	<g>
		<g>
			<path d="M63.2,192.8C28.352,192.8,0,221.151,0,256s28.352,63.2,63.2,63.2s63.2-28.352,63.2-63.2S98.049,192.8,63.2,192.8z
			 M63.2,289.2C44.894,289.2,30,274.307,30,256s14.894-33.2,33.2-33.2c18.306,0,33.2,14.894,33.2,33.2
			C96.4,274.306,81.507,289.2,63.2,289.2z" />
		</g>
	</g>
	<g>
		<g>
			<path d="M63.2,385.6C28.352,385.6,0,413.951,0,448.8S28.352,512,63.2,512s63.2-28.352,63.2-63.2S98.049,385.6,63.2,385.6z
			 M63.2,482C44.894,482,30,467.106,30,448.8c0-18.306,14.894-33.2,33.2-33.2c18.306,0,33.2,14.893,33.2,33.2S81.507,482,63.2,482z" />
		</g>
	</g>
	<g>
		<g>
			<path d="M448.8,0c-34.848,0-63.2,28.352-63.2,63.2c0,34.848,28.351,63.2,63.2,63.2S512,98.049,512,63.2S483.648,0,448.8,0z
			 M448.8,96.4c-18.306,0-33.2-14.893-33.2-33.2S430.493,30,448.8,30c18.307,0,33.2,14.894,33.2,33.2
			C482,81.506,467.106,96.4,448.8,96.4z" />
		</g>
	</g>
	<g>
		<g>
			<path d="M448.8,192.8c-34.849,0-63.2,28.352-63.2,63.2c0,34.848,28.352,63.2,63.2,63.2S512,290.849,512,256
			S483.648,192.8,448.8,192.8z M448.8,289.2c-18.307,0-33.2-14.894-33.2-33.2c0-18.306,14.894-33.2,33.2-33.2
			c18.306,0,33.2,14.893,33.2,33.2S467.106,289.2,448.8,289.2z" />
		</g>
	</g>
	<g>
		<g>
			<path d="M448.8,385.6c-34.849,0-63.2,28.351-63.2,63.2s28.352,63.2,63.2,63.2s63.2-28.352,63.2-63.2S483.648,385.6,448.8,385.6z
			 M448.8,482c-18.307,0-33.2-14.894-33.2-33.2c0-18.306,14.894-33.2,33.2-33.2c18.306,0,33.2,14.893,33.2,33.2
			S467.106,482,448.8,482z" />
		</g>
	</g>
</svg>
