<svg xmlns="http://www.w3.org/2000/svg" viewBox="0 0 512 512">
    <path d="M416,176v-64c0.025-4.253-1.645-8.341-4.64-11.36l-96-96C312.341,1.645,308.253-0.024,304,0H48C21.49,0,0,21.491,0,48
        v416c0,26.51,21.49,48,48,48h112v-32H48c-8.837,0-16-7.163-16-16V48c0-8.837,7.163-16,16-16h240v64c0,17.673,14.327,32,32,32h64
        v48H416z"/>
    <path d="M144,288h32c8.837,0,16,7.163,16,16h32c0-26.51-21.49-48-48-48h-32c-26.51,0-48,21.49-48,48c0,26.51,21.49,48,48,48h32
        c8.837,0,16,7.163,16,16s-7.163,16-16,16h-32c-8.837,0-16-7.163-16-16H96c0,26.51,21.49,48,48,48h32c26.51,0,48-21.49,48-48
        c0-26.51-21.49-48-48-48h-32c-8.837,0-16-7.163-16-16S135.164,288,144,288z"/>
    <path d="M368,352v-32c0-35.346-28.654-64-64-64c-35.346,0-64,28.654-64,64v32c0,35.346,28.654,64,64,64h80v-32h-24.96
        C364.792,374.309,367.883,363.27,368,352z M336,352c0,17.673-14.327,32-32,32c-17.673,0-32-14.327-32-32v-32
        c0-17.673,14.327-32,32-32c17.673,0,32,14.327,32,32V352z"/>
    <path d="M432,384V256h-32v144c0,8.837,7.163,16,16,16h96v-32H432z"/>
</svg>
